<svg xmlns="http://www.w3.org/2000/svg" viewBox="0 0 600 400" width="600" height="400">
  <defs>
    <linearGradient id="bg-0017" x1="0" y1="0" x2="0" y2="1">
      <stop offset="0%" stop-color="#f4ecdc"></stop>
      <stop offset="100%" stop-color="#eee5d2"></stop>
    </linearGradient>
    <linearGradient id="jar-0017" x1="0" y1="0" x2="1" y2="0">
      <stop offset="0%" stop-color="#0a1c14"></stop>
      <stop offset="40%" stop-color="#1a3829"></stop>
      <stop offset="60%" stop-color="#1a3829"></stop>
      <stop offset="100%" stop-color="#08160f"></stop>
    </linearGradient>
    <linearGradient id="label-0017" x1="0" y1="0" x2="0" y2="1">
      <stop offset="0%" stop-color="#d4a85a"></stop>
      <stop offset="100%" stop-color="#8a6a32"></stop>
    </linearGradient>
  </defs>
  <rect width="600" height="400" fill="url(#bg-0017)"></rect>

  
  <line x1="60" y1="340" x2="540" y2="340" stroke="#8a6a32" stroke-width="0.5" opacity="0.4"></line>

  
  <g transform="translate(300,200)">
    
    <ellipse cx="0" cy="142" rx="90" ry="6" fill="#0e1f17" opacity="0.25"></ellipse>
    
    <rect x="-60" y="-130" width="120" height="22" rx="3" fill="#8a6a32"></rect>
    <rect x="-58" y="-128" width="116" height="6" fill="#d4a85a" opacity="0.6"></rect>
    <rect x="-55" y="-114" width="110" height="8" rx="2" fill="#11271c"></rect>
    
    <path d="M -75 -100 L -75 110 Q -75 140 -45 140 L 45 140 Q 75 140 75 110 L 75 -100 Z" fill="url(#jar-0017)" stroke="#0e1f17" stroke-width="1"></path>
    
    <path d="M -65 -90 L -65 100" stroke="#b08840" stroke-width="0.6" opacity="0.3"></path>
    <path d="M 60 -90 L 60 100" stroke="#0e1f17" stroke-width="0.6" opacity="0.5"></path>

    
    <rect x="-58" y="-50" width="116" height="120" rx="4" fill="url(#label-0017)" stroke="#8a6a32" stroke-width="0.8"></rect>
    <rect x="-54" y="-46" width="108" height="112" rx="2" fill="none" stroke="#11271c" stroke-width="0.4" opacity="0.5"></rect>
    
    
    <text x="0" y="-30" text-anchor="middle" font-family="Marcellus, serif" font-size="9" letter-spacing="2" fill="#11271c">FAMILY TREE</text>
    <line x1="-30" y1="-22" x2="30" y2="-22" stroke="#11271c" stroke-width="0.4"></line>
    <text x="0" y="-2" text-anchor="middle" font-family="Marcellus, serif" font-size="22" fill="#11271c">Henrique</text>
    <text x="0" y="18" text-anchor="middle" font-family="Petit Formal Script, cursive" font-size="11" fill="#1a3829" opacity="0.85">A/25</text>
    <line x1="-20" y1="28" x2="20" y2="28" stroke="#11271c" stroke-width="0.3"></line>
    <text x="0" y="44" text-anchor="middle" font-family="JetBrains Mono, monospace" font-size="8" letter-spacing="1.5" fill="#11271c">BATCH 0017</text>
    <text x="0" y="58" text-anchor="middle" font-family="DM Sans, sans-serif" font-weight="600" font-size="6" letter-spacing="2" fill="#11271c" opacity="0.7">INFARMED · EU-GMP</text>

    
    <g transform="translate(0,-45)" fill="#11271c" opacity="0.7">
      <path d="M -3 -4 L 1 -1 L -1 -1 L 3 4 L -1 1 L 1 1 Z"></path>
    </g>
  </g>

  
  <g fill="#b08840" opacity="0.5">
    <circle cx="40" cy="40" r="1.5"></circle>
    <circle cx="560" cy="40" r="1.5"></circle>
    <circle cx="40" cy="360" r="1.5"></circle>
    <circle cx="560" cy="360" r="1.5"></circle>
  </g>

  
  <g transform="translate(540,40)">
    <text text-anchor="end" font-family="DM Sans, sans-serif" font-size="9" letter-spacing="2" fill="#8a6a32" font-weight="600">A/25</text>
  </g>
</svg>