<svg xmlns="http://www.w3.org/2000/svg" viewBox="0 0 1600 1200" preserveAspectRatio="xMidYMid slice">
    <defs>
      <linearGradient id="gcondition-pain.svg" x1="0" y1="0" x2="1" y2="1">
        <stop offset="0" stop-color="#c89a5a"></stop><stop offset="1" stop-color="#5a4a32"></stop>
      </linearGradient>
      <radialGradient id="rcondition-pain.svg" cx="0.5" cy="0.4" r="0.6">
        <stop offset="0" stop-color="#ffffff" stop-opacity="0.25"></stop><stop offset="1" stop-color="#ffffff" stop-opacity="0"></stop>
      </radialGradient>
    </defs>
    <rect width="1600" height="1200" fill="url(#gcondition-pain.svg)"></rect>
    <rect width="1600" height="1200" fill="url(#rcondition-pain.svg)"></rect>
    
    <g transform="translate(800,600)" opacity="0.55" stroke="#ffffff" stroke-width="4" fill="none" stroke-linecap="round" stroke-linejoin="round">
      
        <path d="M 0 -300 Q -40 -200 0 -100 Q 40 0 0 100 Q -40 200 0 300"></path>
        <path d="M -50 -260 L 50 -260"></path><path d="M -55 -180 L 55 -180"></path><path d="M -60 -100 L 60 -100"></path><path d="M -65 -20 L 65 -20"></path><path d="M -60 60 L 60 60"></path><path d="M -55 140 L 55 140"></path><path d="M -50 220 L 50 220"></path>
      
    </g>
    
    <circle cx="1276.0358665646788" cy="419.41837298529333" r="2.2173612848885296" fill="#ffffff" opacity="0.06950268291883402"></circle><circle cx="321.6026295818761" cy="632.7753967928022" r="0.7771195918933771" fill="#ffffff" opacity="0.1511011748343673"></circle><circle cx="1035.9019137518744" cy="1113.7365984977203" r="1.424154265266573" fill="#ffffff" opacity="0.3093689205661721"></circle><circle cx="676.7303773516254" cy="863.6976103350431" r="0.9198455864032344" fill="#ffffff" opacity="0.16672737674100285"></circle><circle cx="655.0851262926976" cy="204.41875272341838" r="2.119304847460846" fill="#ffffff" opacity="0.28214133226636967"></circle><circle cx="1136.4278323909002" cy="1164.2363590652396" r="1.5160993928863544" fill="#ffffff" opacity="0.12013570019576304"></circle><circle cx="419.7487882308593" cy="766.8763721119162" r="1.8011209355682154" fill="#ffffff" opacity="0.22583710041248212"></circle><circle cx="249.63222122703252" cy="595.5820995719899" r="2.1820112466212525" fill="#ffffff" opacity="0.3472436068246821"></circle><circle cx="118.57453966639628" cy="867.8700083995242" r="0.552060634375011" fill="#ffffff" opacity="0.288705676679595"></circle><circle cx="286.28894596297556" cy="461.6160389307592" r="1.915639506912101" fill="#ffffff" opacity="0.1998421929149004"></circle><circle cx="386.026869135981" cy="613.9777818409048" r="0.5192628621613715" fill="#ffffff" opacity="0.16520610373132322"></circle><circle cx="645.0023604643342" cy="1138.6103074722523" r="2.275394580923494" fill="#ffffff" opacity="0.10757153314336575"></circle><circle cx="914.4822286921457" cy="985.4626789644259" r="2.380363029200072" fill="#ffffff" opacity="0.3305201184985635"></circle><circle cx="150.99997932587908" cy="38.773137614058896" r="0.569577208520375" fill="#ffffff" opacity="0.3097279589157917"></circle><circle cx="1491.9145360490807" cy="84.41691017969629" r="0.5997520001523895" fill="#ffffff" opacity="0.1797194739768856"></circle><circle cx="1373.7431819292412" cy="337.6554862319772" r="0.8989686454708166" fill="#ffffff" opacity="0.2048559663155599"></circle><circle cx="1456.0219584811937" cy="597.3003484314576" r="0.5708850718906067" fill="#ffffff" opacity="0.3083915558050143"></circle><circle cx="1548.4489654563095" cy="497.59235741950044" r="1.160144606696576" fill="#ffffff" opacity="0.06930861960247951"></circle><circle cx="1472.260607378113" cy="1192.4790895893623" r="2.27952771151452" fill="#ffffff" opacity="0.2704650052007541"></circle><circle cx="1541.9735687722002" cy="60.60824220166743" r="2.0997415432557665" fill="#ffffff" opacity="0.12234109094865961"></circle><circle cx="1249.893604978641" cy="401.5350963838285" r="0.9767213924498996" fill="#ffffff" opacity="0.23095970893332568"></circle><circle cx="865.6659908940296" cy="154.7199441548507" r="1.694904800097799" fill="#ffffff" opacity="0.23630971260575367"></circle><circle cx="1271.5887489872634" cy="1007.2873176529218" r="0.766084664150436" fill="#ffffff" opacity="0.053100411295705086"></circle><circle cx="1543.6656731224937" cy="115.89086295154658" r="1.830212034778697" fill="#ffffff" opacity="0.32098821235414404"></circle><circle cx="981.2573671269016" cy="1139.3946986760227" r="0.6432700713319603" fill="#ffffff" opacity="0.19942567188224014"></circle><circle cx="940.1103680918548" cy="654.4640625691164" r="0.8875896228519222" fill="#ffffff" opacity="0.1573549572795366"></circle><circle cx="948.3860598921896" cy="1010.9186525296323" r="1.7633813301043189" fill="#ffffff" opacity="0.21914643854367166"></circle><circle cx="380.45436050508863" cy="299.41555359183695" r="0.6030206585433548" fill="#ffffff" opacity="0.2149893728812814"></circle><circle cx="1307.8445060016727" cy="919.4866411558706" r="0.7363055470344302" fill="#ffffff" opacity="0.3369762175248941"></circle><circle cx="997.28551586966" cy="365.9328622016738" r="2.093362538540979" fill="#ffffff" opacity="0.3428556719813593"></circle>
    
    <radialGradient id="vcondition-pain.svg" cx="0.5" cy="0.5" r="0.7">
      <stop offset="0.5" stop-color="#000" stop-opacity="0"></stop><stop offset="1" stop-color="#000" stop-opacity="0.45"></stop>
    </radialGradient>
    <rect width="1600" height="1200" fill="url(#vcondition-pain.svg)"></rect>
  </svg>