<svg xmlns="http://www.w3.org/2000/svg" viewBox="0 0 2400 1600" preserveAspectRatio="xMidYMid slice">
    <defs>
      <linearGradient id="sky" x1="0" y1="0" x2="0" y2="1">
        <stop offset="0" stop-color="#3a4a3e"></stop><stop offset="1" stop-color="#1a2620"></stop>
      </linearGradient>
      <linearGradient id="warm" x1="0" y1="0" x2="1" y2="1">
        <stop offset="0" stop-color="#c89a5a" stop-opacity="0.6"></stop><stop offset="1" stop-color="#8a6a3a" stop-opacity="0.2"></stop>
      </linearGradient>
      <radialGradient id="glow" cx="0.7" cy="0.35" r="0.5">
        <stop offset="0" stop-color="#e8c98a" stop-opacity="0.5"></stop><stop offset="1" stop-color="#e8c98a" stop-opacity="0"></stop>
      </radialGradient>
    </defs>
    <rect width="2400" height="1600" fill="url(#sky)"></rect>
    <rect width="2400" height="1600" fill="url(#glow)"></rect>
    
    <g opacity="0.5">
      <rect x="1100" y="300" width="1200" height="20" fill="#5a4a32"></rect>
      <rect x="1100" y="700" width="1200" height="20" fill="#5a4a32"></rect>
      <rect x="1100" y="1100" width="1200" height="20" fill="#5a4a32"></rect>
    </g>
    
    <g transform="translate(1180,140)">
      
        <g transform="translate(0,0)">
          <rect x="20" y="40" width="120" height="140" rx="8" fill="#2a3a32" stroke="#8a7a5a" stroke-width="2"></rect>
          <rect x="30" y="20" width="100" height="30" rx="4" fill="#3a4a40" stroke="#8a7a5a" stroke-width="2"></rect>
          <rect x="40" y="100" width="80" height="40" fill="#d4b888" opacity="0.8"></rect>
          <text x="80" y="125" text-anchor="middle" font-family="serif" font-size="11" fill="#3a2a18" font-style="italic">Cannabis Sat.</text>
        </g>
      
        <g transform="translate(180,0)">
          <rect x="20" y="40" width="120" height="140" rx="8" fill="#2a3a32" stroke="#8a7a5a" stroke-width="2"></rect>
          <rect x="30" y="20" width="100" height="30" rx="4" fill="#3a4a40" stroke="#8a7a5a" stroke-width="2"></rect>
          <rect x="40" y="100" width="80" height="40" fill="#d4b888" opacity="0.8"></rect>
          <text x="80" y="125" text-anchor="middle" font-family="serif" font-size="11" fill="#3a2a18" font-style="italic">Cannabis Ind.</text>
        </g>
      
        <g transform="translate(360,0)">
          <rect x="20" y="40" width="120" height="140" rx="8" fill="#2a3a32" stroke="#8a7a5a" stroke-width="2"></rect>
          <rect x="30" y="20" width="100" height="30" rx="4" fill="#3a4a40" stroke="#8a7a5a" stroke-width="2"></rect>
          <rect x="40" y="100" width="80" height="40" fill="#d4b888" opacity="0.8"></rect>
          <text x="80" y="125" text-anchor="middle" font-family="serif" font-size="11" fill="#3a2a18" font-style="italic">Cannabis Hyb.</text>
        </g>
      
        <g transform="translate(540,0)">
          <rect x="20" y="40" width="120" height="140" rx="8" fill="#2a3a32" stroke="#8a7a5a" stroke-width="2"></rect>
          <rect x="30" y="20" width="100" height="30" rx="4" fill="#3a4a40" stroke="#8a7a5a" stroke-width="2"></rect>
          <rect x="40" y="100" width="80" height="40" fill="#d4b888" opacity="0.8"></rect>
          <text x="80" y="125" text-anchor="middle" font-family="serif" font-size="11" fill="#3a2a18" font-style="italic">Cannabis CBD</text>
        </g>
      
        <g transform="translate(720,0)">
          <rect x="20" y="40" width="120" height="140" rx="8" fill="#2a3a32" stroke="#8a7a5a" stroke-width="2"></rect>
          <rect x="30" y="20" width="100" height="30" rx="4" fill="#3a4a40" stroke="#8a7a5a" stroke-width="2"></rect>
          <rect x="40" y="100" width="80" height="40" fill="#d4b888" opacity="0.8"></rect>
          <text x="80" y="125" text-anchor="middle" font-family="serif" font-size="11" fill="#3a2a18" font-style="italic">Cannabis THC</text>
        </g>
      
        <g transform="translate(900,0)">
          <rect x="20" y="40" width="120" height="140" rx="8" fill="#2a3a32" stroke="#8a7a5a" stroke-width="2"></rect>
          <rect x="30" y="20" width="100" height="30" rx="4" fill="#3a4a40" stroke="#8a7a5a" stroke-width="2"></rect>
          <rect x="40" y="100" width="80" height="40" fill="#d4b888" opacity="0.8"></rect>
          <text x="80" y="125" text-anchor="middle" font-family="serif" font-size="11" fill="#3a2a18" font-style="italic">Cannabis Bal.</text>
        </g>
      
    </g>
    
    <g transform="translate(1180,540)">
      
        <g transform="translate(0,0)">
          <ellipse cx="80" cy="140" rx="55" ry="20" fill="#1a2018" opacity="0.4"></ellipse>
          <path d="M 30 60 Q 30 40 50 30 L 110 30 Q 130 40 130 60 L 130 140 Q 130 160 110 160 L 50 160 Q 30 160 30 140 Z" fill="#2a3a32" stroke="#8a7a5a" stroke-width="2"></path>
          <rect x="50" y="20" width="60" height="20" rx="3" fill="#3a4a40" stroke="#8a7a5a" stroke-width="1.5"></rect>
          <rect x="40" y="80" width="80" height="40" fill="#c8a878" opacity="0.7"></rect>
        </g>
      
        <g transform="translate(180,0)">
          <ellipse cx="80" cy="140" rx="55" ry="20" fill="#1a2018" opacity="0.4"></ellipse>
          <path d="M 30 60 Q 30 40 50 30 L 110 30 Q 130 40 130 60 L 130 140 Q 130 160 110 160 L 50 160 Q 30 160 30 140 Z" fill="#2a3a32" stroke="#8a7a5a" stroke-width="2"></path>
          <rect x="50" y="20" width="60" height="20" rx="3" fill="#3a4a40" stroke="#8a7a5a" stroke-width="1.5"></rect>
          <rect x="40" y="80" width="80" height="40" fill="#c8a878" opacity="0.7"></rect>
        </g>
      
        <g transform="translate(360,0)">
          <ellipse cx="80" cy="140" rx="55" ry="20" fill="#1a2018" opacity="0.4"></ellipse>
          <path d="M 30 60 Q 30 40 50 30 L 110 30 Q 130 40 130 60 L 130 140 Q 130 160 110 160 L 50 160 Q 30 160 30 140 Z" fill="#2a3a32" stroke="#8a7a5a" stroke-width="2"></path>
          <rect x="50" y="20" width="60" height="20" rx="3" fill="#3a4a40" stroke="#8a7a5a" stroke-width="1.5"></rect>
          <rect x="40" y="80" width="80" height="40" fill="#c8a878" opacity="0.7"></rect>
        </g>
      
        <g transform="translate(540,0)">
          <ellipse cx="80" cy="140" rx="55" ry="20" fill="#1a2018" opacity="0.4"></ellipse>
          <path d="M 30 60 Q 30 40 50 30 L 110 30 Q 130 40 130 60 L 130 140 Q 130 160 110 160 L 50 160 Q 30 160 30 140 Z" fill="#2a3a32" stroke="#8a7a5a" stroke-width="2"></path>
          <rect x="50" y="20" width="60" height="20" rx="3" fill="#3a4a40" stroke="#8a7a5a" stroke-width="1.5"></rect>
          <rect x="40" y="80" width="80" height="40" fill="#c8a878" opacity="0.7"></rect>
        </g>
      
        <g transform="translate(720,0)">
          <ellipse cx="80" cy="140" rx="55" ry="20" fill="#1a2018" opacity="0.4"></ellipse>
          <path d="M 30 60 Q 30 40 50 30 L 110 30 Q 130 40 130 60 L 130 140 Q 130 160 110 160 L 50 160 Q 30 160 30 140 Z" fill="#2a3a32" stroke="#8a7a5a" stroke-width="2"></path>
          <rect x="50" y="20" width="60" height="20" rx="3" fill="#3a4a40" stroke="#8a7a5a" stroke-width="1.5"></rect>
          <rect x="40" y="80" width="80" height="40" fill="#c8a878" opacity="0.7"></rect>
        </g>
      
        <g transform="translate(900,0)">
          <ellipse cx="80" cy="140" rx="55" ry="20" fill="#1a2018" opacity="0.4"></ellipse>
          <path d="M 30 60 Q 30 40 50 30 L 110 30 Q 130 40 130 60 L 130 140 Q 130 160 110 160 L 50 160 Q 30 160 30 140 Z" fill="#2a3a32" stroke="#8a7a5a" stroke-width="2"></path>
          <rect x="50" y="20" width="60" height="20" rx="3" fill="#3a4a40" stroke="#8a7a5a" stroke-width="1.5"></rect>
          <rect x="40" y="80" width="80" height="40" fill="#c8a878" opacity="0.7"></rect>
        </g>
      
    </g>
    
    <g transform="translate(1300,1180)" opacity="0.85">
      <ellipse cx="200" cy="280" rx="220" ry="40" fill="#0a0e0a" opacity="0.5"></ellipse>
      <path d="M 50 100 Q 50 250 200 280 Q 350 250 350 100 Z" fill="#3a3328" stroke="#8a7a5a" stroke-width="3"></path>
      <ellipse cx="200" cy="100" rx="150" ry="35" fill="#5a4a32" stroke="#8a7a5a" stroke-width="2"></ellipse>
      <ellipse cx="200" cy="100" rx="120" ry="25" fill="#1a1410"></ellipse>
      
      <g transform="rotate(-20 200 100)">
        <rect x="280" y="50" width="20" height="180" rx="8" fill="#5a4a32" stroke="#8a7a5a" stroke-width="2"></rect>
        <ellipse cx="290" cy="40" rx="22" ry="18" fill="#5a4a32" stroke="#8a7a5a" stroke-width="2"></ellipse>
      </g>
    </g>
    
    <g opacity="0.4" stroke="#8aa080" stroke-width="2" fill="none">
      <path d="M 100 1400 Q 200 1200 350 1300 Q 400 1100 500 1200"></path>
      <path d="M 150 1500 Q 250 1350 400 1450"></path>
    </g>
    
    <rect width="2400" height="1600" fill="url(#warm)" opacity="0.3"></rect>
    <radialGradient id="vig" cx="0.5" cy="0.5" r="0.7">
      <stop offset="0.6" stop-color="#000" stop-opacity="0"></stop><stop offset="1" stop-color="#000" stop-opacity="0.4"></stop>
    </radialGradient>
    <rect width="2400" height="1600" fill="url(#vig)"></rect>
  </svg>