<svg xmlns="http://www.w3.org/2000/svg" viewBox="0 0 200 200" width="200" height="200">
  <defs>
    <radialGradient id="g-spreadsheet-hero" cx="50%" cy="35%" r="70%">
      <stop offset="0%" stop-color="#4ade80" stop-opacity="0.18"></stop>
      <stop offset="55%" stop-color="#4ade80" stop-opacity="0.04"></stop>
      <stop offset="100%" stop-color="#0a0d14" stop-opacity="0"></stop>
    </radialGradient>
  </defs>
  <rect width="200" height="200" rx="14" fill="#0a0d14"></rect>
  <rect width="200" height="200" rx="14" fill="url(#g-spreadsheet-hero)"></rect>
  <rect x="52" y="52" width="96" height="96" rx="4" fill="none" stroke="#4ade80" stroke-width="1.75"></rect>
  <rect x="52" y="52" width="96" height="24" fill="#4ade80" fill-opacity="0.15"></rect>
  <rect x="100" y="100" width="24" height="24" fill="#4ade80" fill-opacity="0.45"></rect>
  <line x1="76" y1="52" x2="76" y2="148" stroke="#4ade80" stroke-opacity="0.45" stroke-width="1.25"></line>
  <line x1="100" y1="52" x2="100" y2="148" stroke="#4ade80" stroke-opacity="0.45" stroke-width="1.25"></line>
  <line x1="124" y1="52" x2="124" y2="148" stroke="#4ade80" stroke-opacity="0.45" stroke-width="1.25"></line>
  <line x1="52" y1="76" x2="148" y2="76" stroke="#4ade80" stroke-opacity="0.45" stroke-width="1.25"></line>
  <line x1="52" y1="100" x2="148" y2="100" stroke="#4ade80" stroke-opacity="0.45" stroke-width="1.25"></line>
  <line x1="52" y1="124" x2="148" y2="124" stroke="#4ade80" stroke-opacity="0.45" stroke-width="1.25"></line>
  <circle cx="64" cy="64" r="2" fill="#4ade80"></circle>
  <circle cx="88" cy="64" r="2" fill="#4ade80"></circle>
  <circle cx="112" cy="64" r="2" fill="#4ade80"></circle>
  <circle cx="136" cy="64" r="2" fill="#4ade80"></circle></svg>